<svg width="32" height="32" viewBox="0 0 32 32" xmlns="http://www.w3.org/2000/svg">
  <defs>
    <radialGradient id="toothGradient" cx="50%" cy="30%" r="70%">
      <stop offset="0%" style="stop-color:#ffffff;stop-opacity:1" />
      <stop offset="50%" style="stop-color:#f8f9fa;stop-opacity:1" />
      <stop offset="100%" style="stop-color:#e9ecef;stop-opacity:1" />
    </radialGradient>
    <radialGradient id="backgroundGradient" cx="50%" cy="50%" r="50%">
      <stop offset="0%" style="stop-color:#FFD700;stop-opacity:1" />
      <stop offset="100%" style="stop-color:#FFA500;stop-opacity:1" />
    </radialGradient>
  </defs>
  
  <!-- 背景円 -->
  <circle cx="16" cy="16" r="16" fill="url(#backgroundGradient)"/>
  
  <!-- 歯の形状 -->
  <path d="M16 6 
           C18.5 6 20.5 7.5 20.5 9.5
           C20.5 11 20 12.5 19.5 14
           C19.2 15 19 16 19 17
           C19 18.5 18.8 20 18.5 21.5
           C18.2 23 17.5 24.5 16.5 25.5
           C16.2 25.8 15.8 25.8 15.5 25.5
           C14.5 24.5 13.8 23 13.5 21.5
           C13.2 20 13 18.5 13 17
           C13 16 12.8 15 12.5 14
           C12 12.5 11.5 11 11.5 9.5
           C11.5 7.5 13.5 6 16 6 Z" 
        fill="url(#toothGradient)" 
        stroke="#d6d8db" 
        stroke-width="0.5"/>
  
  <!-- 歯の光沢 -->
  <ellipse cx="15" cy="12" rx="2" ry="4" fill="#ffffff" opacity="0.6"/>
  
  <!-- 歯の根元の影 -->
  <ellipse cx="16" cy="23" rx="3" ry="1.5" fill="#000000" opacity="0.1"/>
</svg> 